<svg xmlns="http://www.w3.org/2000/svg" version="1.1" xmlns:xlink="http://www.w3.org/1999/xlink" xmlns:svgjs="http://svgjs.dev/svgjs" width="1500" height="1500" viewBox="0 0 1500 1500"><rect width="1500" height="1500" fill="#ffffff"></rect><g transform="matrix(0.6666666666666666,0,0,0.6666666666666666,249.39393939393938,597.8709010171096)"><svg viewBox="0 0 396 121" data-background-color="#ffffff" preserveAspectRatio="xMidYMid meet" height="458" width="1500" xmlns="http://www.w3.org/2000/svg" xmlns:xlink="http://www.w3.org/1999/xlink"><g id="tight-bounds" transform="matrix(1,0,0,1,0.2400000000000091,-0.21303173494627003)"><svg viewBox="0 0 395.52 121.42606346989254" height="121.42606346989254" width="395.52"><g><svg viewBox="0 0 484.68074890828876 148.79873427278753" height="121.42606346989254" width="395.52"><g><rect width="3.9109230576985827" height="68.05501458289027" x="405.7580184756507" y="40.37185984494863" fill="#096a2e" opacity="1" stroke-width="0" stroke="transparent" fill-opacity="1" className="rect-qz-0" data-fill-palette-color="primary" rx="1%" id="qz-0" data-palette-color="#096a2e"></rect></g><g transform="matrix(1,0,0,1,0,40.54115092600059)"><svg viewBox="0 0 395.52 67.71643242078635" height="67.71643242078635" width="395.52"><g id="textblocktransform"><svg viewBox="0 0 395.52 67.71643242078635" height="67.71643242078635" width="395.52" id="textblock"><g><svg viewBox="0 0 395.52 43.36746842394288" height="43.36746842394288" width="395.52"><g transform="matrix(1,0,0,1,0,0)"><svg width="395.52" viewBox="4 -29.45 273.14 29.95" height="43.36746842394288" data-palette-color="#096a2e"><g className="wordmark-text-0" data-fill-palette-color="primary" id="text-0"><path d="M11.1 0L4.5 0 4.5-25.4 4-29.4 11.6-29.4 22.9-9.4 34.6-29.4 41.35-29.4 41.35 0 34.75 0 34.75-18.65 34.2-18.65 32.25-14.3 25.95-3 19.9-3 13.6-14.3 11.6-18.65 11.1-18.65 11.1 0ZM72.6 0L58 0Q54.5 0 52.5-1 50.5-2 49.67-4 48.85-6 48.85-8.95L48.85-8.95 48.85-20.5Q48.85-23.4 49.65-25.38 50.45-27.35 52.45-28.38 54.45-29.4 58-29.4L58-29.4 72.6-29.4Q76.1-29.4 78.07-28.38 80.05-27.35 80.87-25.38 81.7-23.4 81.7-20.5L81.7-20.5 81.7-8.95Q81.7-4.55 79.75-2.27 77.8 0 72.6 0L72.6 0ZM59.45-4.8L59.45-4.8 71.2-4.8Q73.05-4.8 74.07-5.75 75.1-6.7 75.1-8.35L75.1-8.35 75.1-21.1Q75.1-22.55 74.05-23.58 73-24.6 71.2-24.6L71.2-24.6 59.45-24.6Q57.65-24.6 56.55-23.65 55.45-22.7 55.45-21.1L55.45-21.1 55.45-8.35Q55.45-6.65 56.52-5.73 57.6-4.8 59.45-4.8ZM96.3 0L89.7 0 89.7-25.4 89.2-29.4 96.4-29.4 113.4-11.6 115.35-8.9 115.9-8.9 115.9-29.4 122.5-29.4 122.5 0 116.15 0 98.75-18.1 96.8-20.45 96.3-20.45 96.3 0ZM147.14 0L140.54 0 140.49-24.65 127.49-24.65 127.49-29.45 160.19-29.45 160.19-24.65 147.14-24.65 147.14 0ZM188.14 0.5L172.59 0.5Q168.04 0.5 166.24-1.95 164.44-4.4 164.44-8.45L164.44-8.45 164.44-29.4 171.04-29.4 171.04-8.25Q171.04-5.9 172.19-5.1 173.34-4.3 175.04-4.3L175.04-4.3 185.64-4.3Q187.24-4.3 188.44-5.13 189.64-5.95 189.64-8.25L189.64-8.25 189.64-29.4 196.24-29.4 196.24-8.45Q196.24-5.75 195.49-3.75 194.74-1.75 192.99-0.63 191.24 0.5 188.14 0.5L188.14 0.5ZM210.59 0L203.99 0 203.99-25.4 203.49-29.4 210.69-29.4 227.69-11.6 229.64-8.9 230.19-8.9 230.19-29.4 236.79-29.4 236.79 0 230.44 0 213.04-18.1 211.09-20.45 210.59-20.45 210.59 0ZM268.04 0L253.44 0Q249.94 0 247.94-1 245.94-2 245.11-4 244.29-6 244.29-8.95L244.29-8.95 244.29-20.5Q244.29-23.4 245.09-25.38 245.89-27.35 247.89-28.38 249.89-29.4 253.44-29.4L253.44-29.4 268.04-29.4Q271.54-29.4 273.51-28.38 275.49-27.35 276.31-25.38 277.14-23.4 277.14-20.5L277.14-20.5 277.14-8.95Q277.14-4.55 275.19-2.27 273.24 0 268.04 0L268.04 0ZM254.89-4.8L254.89-4.8 266.64-4.8Q268.49-4.8 269.51-5.75 270.54-6.7 270.54-8.35L270.54-8.35 270.54-21.1Q270.54-22.55 269.49-23.58 268.44-24.6 266.64-24.6L266.64-24.6 254.89-24.6Q253.09-24.6 251.99-23.65 250.89-22.7 250.89-21.1L250.89-21.1 250.89-8.35Q250.89-6.65 251.96-5.73 253.04-4.8 254.89-4.8Z" fill="#096a2e" data-fill-palette-color="primary"></path></g></svg></g></svg></g><g transform="matrix(1,0,0,1,163.310208,53.60548689959362)"><svg viewBox="0 0 232.209792 14.110945521192725" height="14.110945521192725" width="232.209792"><g transform="matrix(1,0,0,1,0,0)"><svg width="232.209792" viewBox="1.17 -37.5 625.49 38.01" height="14.110945521192725" data-palette-color="#111111"><path d="M17.9-30.69L28.86-30.69 28.86-35.55 1.17-35.55 1.17-30.69 12.06-30.69 12.06 0 17.9 0 17.9-30.69ZM50.75-3.69L51.1 0 56.39 0 56.39-26.42 50.53-26.42 50.53-7.71Q50.19-6.98 49.7-6.38 49.22-5.79 48.58-5.35L48.58-5.35Q47.82-4.86 46.82-4.58 45.82-4.3 44.55-4.3L44.55-4.3Q43.33-4.3 42.43-4.61 41.53-4.93 40.94-5.69L40.94-5.69Q40.35-6.42 40.09-7.65 39.82-8.89 39.82-10.72L39.82-10.72 39.82-26.42 33.98-26.42 33.98-10.77Q33.98-7.79 34.64-5.65 35.3-3.52 36.5-2.15L36.5-2.15Q37.72-0.78 39.41-0.13 41.11 0.51 43.16 0.51L43.16 0.51Q45.55 0.51 47.48-0.6 49.41-1.71 50.75-3.69L50.75-3.69ZM82.05-26.9L82.05-26.9Q79.32-26.9 77.06-25.63 74.8-24.37 73.19-22.14L73.19-22.14 73.16-22.75 72.92-26.42 67.45-26.42 67.45 0 73.29 0 73.29-16.31Q73.75-17.48 74.43-18.38 75.12-19.29 76.09-19.87L76.09-19.87Q77-20.48 78.17-20.78 79.34-21.07 80.81-21.07L80.81-21.07Q82.1-21.07 83.41-20.92 84.71-20.78 86.05-20.48L86.05-20.48 86.88-26.25Q86.13-26.51 84.8-26.71 83.47-26.9 82.05-26.9ZM109.15-26.42L95.13-26.42 95.13-21.56 103.26-21.56 103.26-4.83 95.13-4.83 95.13 0 116.91 0 116.91-4.83 109.15-4.83 109.15-26.42ZM102.73-33.25L102.73-33.25Q102.73-32.32 103.18-31.63 103.63-30.93 104.51-30.66L104.51-30.66Q105.36-30.4 106.07-30.54 106.78-30.69 107.29-31.15L107.29-31.15Q108.32-31.42 108.85-32.21 109.39-33.01 109.22-34.08L109.22-34.08Q109.1-35.13 108.28-35.8 107.46-36.47 106.14-36.47L106.14-36.47Q105.36-36.47 104.74-36.24 104.12-36.01 103.68-35.6L103.68-35.6Q103.22-35.16 102.97-34.56 102.73-33.96 102.73-33.25ZM141.05-7.15L141.05-7.15Q141.05-6.52 140.77-5.99 140.49-5.47 139.93-5.03L139.93-5.03Q139.25-4.49 138.11-4.17 136.98-3.86 135.46-3.86L135.46-3.86Q134.34-3.86 133.24-4.09 132.14-4.32 131.29-4.86L131.29-4.86Q130.41-5.37 129.84-6.21 129.26-7.06 129.19-8.28L129.19-8.28 123.53-8.28Q123.53-6.64 124.31-5.05 125.09-3.47 126.6-2.25L126.6-2.25Q128.09-1 130.3-0.24 132.51 0.51 135.37 0.51L135.37 0.51Q137.93 0.51 140.03-0.07 142.13-0.66 143.64-1.71L143.64-1.71Q145.13-2.76 145.95-4.22 146.77-5.69 146.77-7.45L146.77-7.45Q146.77-9.25 145.99-10.57 145.2-11.89 143.79-12.87L143.79-12.87Q142.37-13.79 140.37-14.43 138.37-15.06 135.95-15.5L135.95-15.5Q134.22-15.8 133.08-16.16 131.95-16.53 131.31-16.97L131.31-16.97Q130.63-17.38 130.36-17.93 130.09-18.48 130.09-19.17L130.09-19.17Q130.09-19.82 130.41-20.42 130.73-21.02 131.36-21.46L131.36-21.46Q132-21.95 132.99-22.23 133.97-22.51 135.29-22.51L135.29-22.51Q136.73-22.51 137.81-22.13 138.88-21.75 139.57-21.12L139.57-21.12Q140.15-20.58 140.46-19.91 140.76-19.24 140.76-18.51L140.76-18.51 146.6-18.51Q146.6-20.29 145.82-21.83 145.03-23.36 143.59-24.49L143.59-24.49Q142.13-25.61 140.03-26.26 137.93-26.9 135.29-26.9L135.29-26.9Q132.83-26.9 130.81-26.27 128.8-25.63 127.38-24.54L127.38-24.54Q125.94-23.44 125.17-21.98 124.4-20.53 124.4-18.92L124.4-18.92Q124.4-17.24 125.16-15.97 125.92-14.7 127.26-13.77L127.26-13.77Q128.63-12.79 130.52-12.11 132.41-11.43 134.71-10.96L134.71-10.96Q136.54-10.62 137.76-10.23 138.98-9.84 139.74-9.4L139.74-9.4Q140.44-8.91 140.75-8.37 141.05-7.84 141.05-7.15ZM157.29-23.51L157.12-26.42 152.04-26.42 152.04 0 157.41 0 157.41-20.29Q157.56-20.65 157.74-20.95 157.92-21.24 158.17-21.46L158.17-21.46Q158.48-21.78 158.94-21.94 159.39-22.09 159.97-22.09L159.97-22.09Q160.51-22.09 160.94-21.95 161.36-21.8 161.68-21.48L161.68-21.48Q162-21.17 162.16-20.62 162.32-20.07 162.32-19.29L162.32-19.29 162.32 0 167.59 0 167.59-19.6Q167.59-19.85 167.59-19.98 167.59-20.12 167.59-20.21L167.59-20.21Q167.69-20.63 167.88-20.96 168.08-21.29 168.37-21.53L168.37-21.53Q168.69-21.8 169.1-21.95 169.52-22.09 170.08-22.09L170.08-22.09Q170.62-22.09 171.07-21.95 171.52-21.8 171.84-21.48L171.84-21.48Q172.16-21.14 172.33-20.59 172.5-20.04 172.5-19.26L172.5-19.26 172.5 0 177.87 0 177.87-19.21Q177.87-21.29 177.44-22.77 177.01-24.24 176.23-25.17L176.23-25.17Q175.45-26.05 174.39-26.48 173.33-26.9 172.06-26.9L172.06-26.9Q171.08-26.9 170.26-26.66 169.45-26.42 168.79-25.98L168.79-25.98Q168.27-25.63 167.83-25.15 167.39-24.66 167.05-24.1L167.05-24.1Q166.81-24.71 166.47-25.18 166.13-25.66 165.69-26L165.69-26Q165.12-26.46 164.34-26.68 163.56-26.9 162.59-26.9L162.59-26.9Q160.71-26.9 159.37-26 158.04-25.1 157.29-23.51L157.29-23.51ZM182.72-13.45L182.72-13.45 182.72-12.94Q182.72-10.03 183.55-7.59 184.38-5.15 185.97-3.34L185.97-3.34Q187.53-1.54 189.83-0.51 192.12 0.51 195.03 0.51L195.03 0.51Q197.91 0.51 200.19-0.51 202.48-1.54 204.04-3.34L204.04-3.34Q205.6-5.15 206.43-7.59 207.26-10.03 207.26-12.94L207.26-12.94 207.26-13.45Q207.26-16.33 206.43-18.79 205.6-21.24 204.04-23.05L204.04-23.05Q202.45-24.85 200.17-25.88 197.89-26.9 194.98-26.9L194.98-26.9Q192.07-26.9 189.8-25.88 187.53-24.85 185.97-23.05L185.97-23.05Q184.38-21.24 183.55-18.79 182.72-16.33 182.72-13.45ZM188.56-12.94L188.56-12.94 188.56-13.45Q188.56-15.19 188.94-16.77 189.32-18.36 190.12-19.56L190.12-19.56Q190.9-20.75 192.11-21.46 193.32-22.17 194.98-22.17L194.98-22.17Q196.66-22.17 197.87-21.46 199.08-20.75 199.89-19.56L199.89-19.56Q200.64-18.36 201.03-16.77 201.43-15.19 201.43-13.45L201.43-13.45 201.43-12.94Q201.43-11.16 201.05-9.57 200.67-7.98 199.89-6.79L199.89-6.79Q199.11-5.59 197.89-4.9 196.66-4.2 195.03-4.2L195.03-4.2Q193.34-4.2 192.12-4.9 190.9-5.59 190.12-6.79L190.12-6.79Q189.32-7.98 188.94-9.57 188.56-11.16 188.56-12.94ZM243.02-13.4L243.02-13.4 243.02-12.89Q243.02-10.03 243.75-7.58 244.49-5.13 245.83-3.34L245.83-3.34Q247.17-1.54 249.1-0.52 251.03 0.49 253.45 0.49L253.45 0.49Q255.74 0.49 257.5-0.35 259.26-1.2 260.53-2.76L260.53-2.76 260.8 0 266.09 0 266.09-37.5 260.26-37.5 260.26-23.95Q258.99-25.37 257.34-26.14 255.69-26.9 253.5-26.9L253.5-26.9Q251.05-26.9 249.11-25.92 247.17-24.93 245.83-23.14L245.83-23.14Q244.46-21.36 243.74-18.88 243.02-16.41 243.02-13.4ZM248.86-12.89L248.86-12.89 248.86-13.4Q248.86-15.19 249.2-16.76 249.54-18.33 250.3-19.53L250.3-19.53Q251.01-20.73 252.17-21.41 253.32-22.09 254.96-22.09L254.96-22.09Q256.91-22.09 258.2-21.23 259.48-20.36 260.26-18.9L260.26-18.9 260.26-7.54Q259.48-6.05 258.18-5.19 256.89-4.32 254.91-4.32L254.91-4.32Q253.3-4.32 252.15-4.99 251.01-5.66 250.27-6.86L250.27-6.86Q249.54-8.01 249.2-9.57 248.86-11.13 248.86-12.89ZM286.13 0.49L286.13 0.49Q289.99 0.49 292.71-1.03 295.44-2.54 296.75-4.44L296.75-4.44 293.63-7.47Q292.41-5.91 290.53-5.07 288.65-4.22 286.48-4.22L286.48-4.22Q284.89-4.22 283.56-4.76 282.23-5.3 281.25-6.27L281.25-6.27Q280.28-7.2 279.71-8.37 279.15-9.55 278.88-11.28L278.88-11.28 278.88-11.4 297.19-11.4 297.19-13.92Q297.19-16.75 296.44-19.14 295.68-21.53 294.19-23.27L294.19-23.27Q292.7-24.98 290.5-25.94 288.31-26.9 285.45-26.9L285.45-26.9Q282.89-26.9 280.63-25.94 278.37-24.98 276.66-23.19L276.66-23.19Q274.95-21.41 273.98-18.9 273-16.38 273-13.28L273-13.28 273-12.28Q273-9.57 273.94-7.24 274.88-4.91 276.61-3.2L276.61-3.2Q278.35-1.46 280.78-0.49 283.21 0.49 286.13 0.49ZM285.43-22.17L285.43-22.17Q286.89-22.17 288-21.67 289.11-21.17 289.85-20.34L289.85-20.34Q290.6-19.48 291.02-18.35 291.43-17.21 291.43-16.06L291.43-16.06 291.43-15.67 279.01-15.67Q279.27-17.19 279.84-18.38 280.4-19.58 281.23-20.43L281.23-20.43Q282.06-21.26 283.12-21.72 284.18-22.17 285.43-22.17ZM350.73 0L356.61 0 356.61-35.55 350.7-35.55 350.66-11.18 339.18-35.55 333.22-35.55 333.22 0 339.16 0 339.18-24.46 350.73 0ZM380.68 0L380.68 0 386.64 0 386.64-0.42Q386.15-1.44 385.9-2.87 385.64-4.3 385.64-6.08L385.64-6.08 385.64-17.82Q385.64-20.07 384.81-21.79 383.98-23.51 382.51-24.63L382.51-24.63Q381.05-25.76 379.03-26.33 377.02-26.9 374.7-26.9L374.7-26.9Q372.11-26.9 370.1-26.23 368.09-25.56 366.72-24.41L366.72-24.41Q365.3-23.29 364.57-21.83 363.84-20.36 363.81-18.77L363.81-18.77 369.67-18.77Q369.67-19.53 369.95-20.2 370.23-20.87 370.82-21.34L370.82-21.34Q371.41-21.85 372.3-22.14 373.19-22.44 374.38-22.44L374.38-22.44Q375.7-22.44 376.72-22.11 377.73-21.78 378.44-21.17L378.44-21.17Q379.1-20.56 379.45-19.73 379.8-18.9 379.8-17.87L379.8-17.87 379.8-16.09 375.56-16.09Q372.7-16.09 370.44-15.55 368.18-15.01 366.64-13.99L366.64-13.99Q364.98-12.89 364.12-11.22 363.25-9.55 363.25-7.37L363.25-7.37Q363.25-5.69 363.92-4.24 364.59-2.78 365.81-1.76L365.81-1.76Q367.01-0.71 368.71-0.11 370.4 0.49 372.46 0.49L372.46 0.49Q373.72 0.49 374.82 0.24 375.92 0 376.87-0.44L376.87-0.44Q377.83-0.85 378.6-1.43 379.36-2 379.97-2.64L379.97-2.64Q380.1-1.88 380.26-1.18 380.41-0.49 380.68 0ZM373.58-4.2L373.58-4.2Q372.46-4.2 371.63-4.48 370.8-4.76 370.23-5.25L370.23-5.25Q369.67-5.74 369.38-6.43 369.09-7.13 369.09-7.93L369.09-7.93Q369.09-8.91 369.44-9.69 369.79-10.47 370.53-11.04L370.53-11.04Q371.36-11.69 372.75-12.05 374.14-12.4 376.04-12.4L376.04-12.4 379.8-12.4 379.8-7.52Q379.49-6.88 378.9-6.3 378.31-5.71 377.51-5.25L377.51-5.25Q376.7-4.79 375.71-4.49 374.73-4.2 373.58-4.2ZM405.53-26.42L405.53-32.86 399.67-32.86 399.67-26.42 393.28-26.42 393.28-22.05 399.67-22.05 399.67-9.06Q399.67-6.52 400.35-4.71 401.02-2.91 402.21-1.76L402.21-1.76Q403.41-0.59 405.08-0.04 406.75 0.51 408.76 0.51L408.76 0.51Q409.86 0.51 410.97 0.4 412.08 0.29 413.1 0.1L413.1 0.1Q414.13-0.1 415.02-0.38 415.91-0.66 416.54-1.05L416.54-1.05 415.91-5.08Q415.47-4.98 414.82-4.85 414.18-4.71 413.44-4.61L413.44-4.61Q412.69-4.49 411.88-4.42 411.08-4.35 410.32-4.35L410.32-4.35Q409.27-4.35 408.39-4.59 407.51-4.83 406.88-5.42L406.88-5.42Q406.24-5.98 405.89-6.97 405.53-7.96 405.53-9.42L405.53-9.42 405.53-22.05 415.47-22.05 415.47-26.42 405.53-26.42ZM440.79-3.69L441.13 0 446.42 0 446.42-26.42 440.57-26.42 440.57-7.71Q440.22-6.98 439.74-6.38 439.25-5.79 438.61-5.35L438.61-5.35Q437.86-4.86 436.85-4.58 435.85-4.3 434.58-4.3L434.58-4.3Q433.36-4.3 432.46-4.61 431.56-4.93 430.97-5.69L430.97-5.69Q430.38-6.42 430.12-7.65 429.85-8.89 429.85-10.72L429.85-10.72 429.85-26.42 424.01-26.42 424.01-10.77Q424.01-7.79 424.67-5.65 425.33-3.52 426.53-2.15L426.53-2.15Q427.75-0.78 429.44-0.13 431.14 0.51 433.19 0.51L433.19 0.51Q435.59 0.51 437.51-0.6 439.44-1.71 440.79-3.69L440.79-3.69ZM472.08-26.9L472.08-26.9Q469.35-26.9 467.09-25.63 464.83-24.37 463.22-22.14L463.22-22.14 463.19-22.75 462.95-26.42 457.48-26.42 457.48 0 463.32 0 463.32-16.31Q463.78-17.48 464.46-18.38 465.15-19.29 466.12-19.87L466.12-19.87Q467.03-20.48 468.2-20.78 469.37-21.07 470.84-21.07L470.84-21.07Q472.13-21.07 473.44-20.92 474.74-20.78 476.09-20.48L476.09-20.48 476.92-26.25Q476.16-26.51 474.83-26.71 473.5-26.9 472.08-26.9ZM500.69 0L500.69 0 506.65 0 506.65-0.42Q506.16-1.44 505.9-2.87 505.65-4.3 505.65-6.08L505.65-6.08 505.65-17.82Q505.65-20.07 504.82-21.79 503.99-23.51 502.52-24.63L502.52-24.63Q501.06-25.76 499.04-26.33 497.03-26.9 494.71-26.9L494.71-26.9Q492.12-26.9 490.11-26.23 488.09-25.56 486.73-24.41L486.73-24.41Q485.31-23.29 484.58-21.83 483.85-20.36 483.82-18.77L483.82-18.77 489.68-18.77Q489.68-19.53 489.96-20.2 490.24-20.87 490.83-21.34L490.83-21.34Q491.42-21.85 492.31-22.14 493.2-22.44 494.39-22.44L494.39-22.44Q495.71-22.44 496.73-22.11 497.74-21.78 498.45-21.17L498.45-21.17Q499.11-20.56 499.46-19.73 499.81-18.9 499.81-17.87L499.81-17.87 499.81-16.09 495.57-16.09Q492.71-16.09 490.45-15.55 488.19-15.01 486.65-13.99L486.65-13.99Q484.99-12.89 484.13-11.22 483.26-9.55 483.26-7.37L483.26-7.37Q483.26-5.69 483.93-4.24 484.6-2.78 485.82-1.76L485.82-1.76Q487.02-0.71 488.72-0.11 490.41 0.49 492.46 0.49L492.46 0.49Q493.73 0.49 494.83 0.24 495.93 0 496.88-0.44L496.88-0.44Q497.84-0.85 498.61-1.43 499.37-2 499.98-2.64L499.98-2.64Q500.11-1.88 500.27-1.18 500.42-0.49 500.69 0ZM493.59-4.2L493.59-4.2Q492.46-4.2 491.63-4.48 490.8-4.76 490.24-5.25L490.24-5.25Q489.68-5.74 489.39-6.43 489.1-7.13 489.1-7.93L489.1-7.93Q489.1-8.91 489.45-9.69 489.8-10.47 490.54-11.04L490.54-11.04Q491.37-11.69 492.76-12.05 494.15-12.4 496.05-12.4L496.05-12.4 499.81-12.4 499.81-7.52Q499.5-6.88 498.91-6.3 498.32-5.71 497.52-5.25L497.52-5.25Q496.71-4.79 495.72-4.49 494.74-4.2 493.59-4.2ZM529.18-37.5L514.95-37.5 514.95-32.64 523.3-32.64 523.3-4.83 514.95-4.83 514.95 0 537.19 0 537.19-4.83 529.18-4.83 529.18-37.5ZM556.16 0.49L556.16 0.49Q560.01 0.49 562.74-1.03 565.46-2.54 566.78-4.44L566.78-4.44 563.65-7.47Q562.43-5.91 560.55-5.07 558.67-4.22 556.5-4.22L556.5-4.22Q554.91-4.22 553.58-4.76 552.25-5.3 551.27-6.27L551.27-6.27Q550.3-7.2 549.74-8.37 549.17-9.55 548.91-11.28L548.91-11.28 548.91-11.4 567.22-11.4 567.22-13.92Q567.22-16.75 566.46-19.14 565.7-21.53 564.21-23.27L564.21-23.27Q562.72-24.98 560.53-25.94 558.33-26.9 555.47-26.9L555.47-26.9Q552.91-26.9 550.65-25.94 548.39-24.98 546.68-23.19L546.68-23.19Q544.97-21.41 544-18.9 543.02-16.38 543.02-13.28L543.02-13.28 543.02-12.28Q543.02-9.57 543.96-7.24 544.9-4.91 546.63-3.2L546.63-3.2Q548.37-1.46 550.8-0.49 553.23 0.49 556.16 0.49ZM555.45-22.17L555.45-22.17Q556.91-22.17 558.02-21.67 559.13-21.17 559.87-20.34L559.87-20.34Q560.62-19.48 561.04-18.35 561.45-17.21 561.45-16.06L561.45-16.06 561.45-15.67 549.03-15.67Q549.3-17.19 549.86-18.38 550.42-19.58 551.25-20.43L551.25-20.43Q552.08-21.26 553.14-21.72 554.2-22.17 555.45-22.17ZM597.24-4.71L581.15-4.71 596.51-22.71 596.51-26.42 573.66-26.42 573.66-21.66 588.55-21.66 573.37-3.83 573.37 0 597.24 0 597.24-4.71ZM620.7 0L620.7 0 626.66 0 626.66-0.42Q626.17-1.44 625.91-2.87 625.66-4.3 625.66-6.08L625.66-6.08 625.66-17.82Q625.66-20.07 624.83-21.79 624-23.51 622.53-24.63L622.53-24.63Q621.07-25.76 619.05-26.33 617.04-26.9 614.72-26.9L614.72-26.9Q612.13-26.9 610.12-26.23 608.1-25.56 606.74-24.41L606.74-24.41Q605.32-23.29 604.59-21.83 603.86-20.36 603.83-18.77L603.83-18.77 609.69-18.77Q609.69-19.53 609.97-20.2 610.25-20.87 610.84-21.34L610.84-21.34Q611.42-21.85 612.32-22.14 613.21-22.44 614.4-22.44L614.4-22.44Q615.72-22.44 616.73-22.11 617.75-21.78 618.46-21.17L618.46-21.17Q619.12-20.56 619.47-19.73 619.82-18.9 619.82-17.87L619.82-17.87 619.82-16.09 615.57-16.09Q612.72-16.09 610.46-15.55 608.2-15.01 606.66-13.99L606.66-13.99Q605-12.89 604.14-11.22 603.27-9.55 603.27-7.37L603.27-7.37Q603.27-5.69 603.94-4.24 604.61-2.78 605.83-1.76L605.83-1.76Q607.03-0.71 608.73-0.11 610.42 0.49 612.47 0.49L612.47 0.49Q613.74 0.49 614.84 0.24 615.94 0 616.89-0.44L616.89-0.44Q617.85-0.85 618.61-1.43 619.38-2 619.99-2.64L619.99-2.64Q620.12-1.88 620.27-1.18 620.43-0.49 620.7 0ZM613.6-4.2L613.6-4.2Q612.47-4.2 611.64-4.48 610.81-4.76 610.25-5.25L610.25-5.25Q609.69-5.74 609.4-6.43 609.11-7.13 609.11-7.93L609.11-7.93Q609.11-8.91 609.46-9.69 609.81-10.47 610.55-11.04L610.55-11.04Q611.38-11.69 612.77-12.05 614.16-12.4 616.06-12.4L616.06-12.4 619.82-12.4 619.82-7.52Q619.51-6.88 618.92-6.3 618.33-5.71 617.53-5.25L617.53-5.25Q616.72-4.79 615.73-4.49 614.74-4.2 613.6-4.2Z" opacity="1" transform="matrix(1,0,0,1,0,0)" fill="#111111" className="slogan-text-1" data-fill-palette-color="secondary" id="text-1"></path></svg></g></svg></g></svg></g></svg></g><g transform="matrix(1,0,0,1,419.90696000900004,0)"><svg viewBox="0 0 64.7737888992887 148.79873427278753" height="148.79873427278753" width="64.7737888992887"><g><svg xmlns="http://www.w3.org/2000/svg" xmlns:xlink="http://www.w3.org/1999/xlink" version="1.1" x="0" y="0" viewBox="4.5 2.5370927757507586 41.25137608209449 94.76290722424925" style="enable-background:new 0 0 50 100;" xml:space="preserve" height="148.79873427278753" width="64.7737888992887" className="icon-icon-0" data-fill-palette-color="accent" id="icon-0"><g fill="#096a2e" data-fill-palette-color="accent"><path d="M44.6 3.4c-0.9-1.2-1.2-1.1-2.2 0s-3.7 2.2-8 4.1c-2.6 1.2-4.6 2.3-5.5 3.3-3.7-0.3-11.8-0.7-11.7 0 0.1 0.5 12.4 5.4 14.1 6.3 3.8 2.1 1.7 3.6-1.1 6.8S21.6 31 19.4 34.3c-1.6 2.3-4.2 6.3-4.2 11.9-0.7-0.6-1.7-1.5-2-1.8-1.7-3.5-0.1-9.1-2.2-8.4 0.5 0.1-0.1 6.9 0 7.1-0.4-0.4-5.4-5.7-6.5-4.8 5.7 5.7 5.3 7.6 4.8 9.1s-2.7 6.8-3.5 7.3c1.2 0.1 2.1-0.7 3-2.6 0.9-1.9 2-3.8 3-4.3 1-0.6 3.2 1.6 3.7 2.1 0.9 4.2 5.7 11.9 0.5 24.2-1.4 3.2-2.6 6.3-2.7 8.8-0.4 5.5 3.1 14.4 4.3 14.4s3.4-13.1 5.8-18c0.7 2.9 1.3 5.1 1.5 6 1 3.1 2 2 2.9-1.5s-0.4-2.2 8.1-19.7c8.5-17.4 4.9-27.3 3-32.9-1.8-5.6 0-5.7 3-10.1C46 15.2 46.7 6.1 44.6 3.4zM34.2 14c-1.1 0-2-0.9-2-2s0.9-2 2-2 2 0.9 2 2S35.3 14 34.2 14z" fill="#096a2e" data-fill-palette-color="accent"></path><circle cx="34.2" cy="12" r="0.90" fill="#096a2e" data-fill-palette-color="accent"></circle></g></svg></g></svg></g></svg></g><defs></defs></svg><rect width="395.52" height="121.42606346989254" fill="none" stroke="none" visibility="hidden"></rect></g></svg></g></svg>